<svg width="500" height="617" viewBox="0 0 500 617" fill="none" xmlns="http://www.w3.org/2000/svg">
<g clip-path="url(#clip0)">
<g filter="url(#filter0_d)">
<path d="M63.956 500.602V486.838H50.166V473.074H36.376V431.781H50.166V418.017H63.956V404.253H119.116V418.017H132.906V431.781H105.326V418.017H77.746V431.781H63.956V473.074H77.746V486.838H105.326V473.074H132.906V486.838H119.116V500.602H63.956Z" fill="url(#paint0_linear)"/>
<path d="M160.486 500.602V486.838H146.696V418.017H160.486V404.253H229.436V418.017H243.226V486.838H229.436V500.602H160.486ZM174.276 486.838H215.646V418.017H174.276V486.838Z" fill="url(#paint1_linear)"/>
<path d="M257.016 500.602V404.253H325.966V418.017H339.756V431.781H353.546V473.074H339.756V486.838H325.966V500.602H257.016ZM284.596 486.838H312.176V473.074H325.966V431.781H312.176V418.017H284.596V486.838Z" fill="url(#paint2_linear)"/>
<path d="M367.336 500.602V404.253H463.866V418.017H394.916V445.546H450.076V459.31H394.916V486.838H463.866V500.602H367.336Z" fill="url(#paint3_linear)"/>
</g>
<g filter="url(#filter1_d)">
<path d="M301.707 524.241C304.193 522.098 305.785 520.652 306.482 519.903C307.172 519.102 307.979 518.175 308.901 517.124C309.824 516.073 310.628 515.497 311.314 515.396C312.369 515.24 313.076 516.373 313.435 518.796C313.786 521.166 312.981 523.922 311.021 527.064C309.105 530.146 306.55 532.918 303.357 535.381C300.156 537.791 296.682 539.999 292.936 542.006C285.504 546.063 279.018 548.501 273.478 549.318C267.991 550.128 262.767 549.07 257.804 546.143C252.834 543.163 249.92 538.776 249.062 532.982C248.196 527.136 248.784 521.102 250.828 514.88C252.864 508.605 255.826 502.947 259.716 497.906C263.651 492.804 268.422 488.439 274.031 484.813C279.693 481.178 285.478 478.925 291.387 478.052C294.236 477.632 296.916 478.07 299.426 479.368C301.937 480.666 303.403 482.737 303.824 485.581C304.245 488.425 303.328 492.059 301.072 496.482C298.861 500.846 296.304 503.241 293.403 503.67C290.026 504.168 288.1 502.811 287.624 499.598C287.499 498.755 288.068 497.138 289.331 494.744C290.594 492.351 291.171 490.786 291.061 490.049C290.944 489.259 290.596 488.906 290.015 488.992C287.114 489.421 284.149 490.881 281.122 493.373C278.094 495.865 275.373 498.42 272.957 501.037C270.594 503.646 268.402 506.5 266.381 509.597C261.987 516.327 260.266 522.905 261.217 529.331C261.6 531.912 262.749 534.029 264.666 535.684C266.627 537.278 269.56 537.787 273.464 537.211C277.421 536.627 281.311 535.595 285.136 534.115C288.952 532.583 292.049 531.103 294.425 529.676C296.846 528.188 299.274 526.377 301.707 524.241Z" fill="#FD00FE"/>
<path d="M348.636 449.022C349.08 452.024 350.224 452.52 347.881 455.987C345.529 459.402 342.823 461.336 339.763 461.787C336.756 462.231 333.649 460.682 333.181 457.522C332.713 454.362 333.587 451.165 335.804 447.931C338.065 444.637 338.949 445.12 342.168 444.645C343.592 444.435 345.917 445.225 346.878 445.89C347.839 446.556 348.425 447.599 348.636 449.022ZM348.126 517.146C348.36 518.726 348.369 519.882 348.154 520.613C346.349 526.262 342.866 531.136 337.705 535.234C332.535 539.281 327.867 541.612 323.699 542.227C319.531 542.842 315.737 541.976 312.316 539.629C308.895 537.281 306.97 534.659 306.541 531.762C306.112 528.865 306.938 524.438 309.021 518.479C311.103 512.52 313.248 506.983 315.456 501.867C317.663 496.751 318.739 494.009 318.685 493.64C318.622 493.219 317.951 492.51 316.672 491.515C315.445 490.512 314.792 489.747 314.714 489.221C314.629 488.641 315.496 487.033 317.315 484.396C319.18 481.699 321.501 478.988 324.278 476.264C327.101 473.479 329.33 471.966 330.965 471.725C332.653 471.475 334.266 471.991 335.804 473.271C337.341 474.551 338.2 475.797 338.379 477.008C338.558 478.219 333.969 490.549 324.612 513.997C324.5 514.337 324.157 515.114 323.582 516.329C323.053 517.484 322.631 518.461 322.318 519.261C322.051 520 321.727 520.909 321.348 521.987C320.604 524.25 320.338 526.092 320.549 527.514C320.814 529.305 322.16 530.021 324.587 529.663C327.014 529.305 329.399 528.118 331.743 526.104C334.131 524.029 336.126 521.851 337.729 519.569C341.9 513.517 344.329 510.441 345.015 510.339C346.387 510.137 347.424 512.406 348.126 517.146Z" fill="#FD00FE"/>
<path d="M384.355 425.979L387.717 426.29C388.192 426.22 388.649 426.395 389.088 426.814C389.528 427.234 389.779 427.654 389.841 428.075C389.904 428.497 389.517 429.711 388.683 431.718C387.848 433.725 386.841 436.026 385.662 438.622C384.528 441.158 383.924 442.539 383.85 442.765C387.918 441.842 390.796 441.255 392.485 441.006C394.226 440.749 395.432 440.705 396.104 440.875C396.769 440.992 397.578 441.546 398.534 442.535C399.534 443.464 400.42 444.167 401.191 444.645C401.955 445.071 402.419 445.836 402.583 446.942C402.747 448.048 402.201 449.098 400.947 450.09C399.737 451.022 398.379 451.68 396.872 452.064C384.812 455.083 378.152 456.712 376.894 456.951C373.588 464.113 369.109 475.189 363.459 490.178C357.853 505.107 355.07 514.345 355.11 517.891C355.133 519.502 355.219 520.808 355.367 521.809C355.671 523.863 356.905 524.73 359.068 524.411C361.231 524.092 363.511 522.921 365.907 520.899C368.295 518.824 370.453 516.648 372.38 514.372C377.509 508.233 380.284 505.132 380.706 505.07C382.078 504.867 383.115 507.136 383.817 511.876C384.2 514.457 383.356 516.95 381.286 519.355C376.636 524.724 372.663 528.835 369.366 531.69C366.069 534.545 362.6 536.241 358.96 536.779C358.168 536.896 357.418 536.926 356.709 536.869C352.371 536.702 349.032 535.634 346.691 533.666C344.396 531.636 342.96 528.673 342.382 524.775C341.858 520.87 342.32 515.985 343.769 510.12C345.264 504.194 347.288 497.84 349.841 491.058C354.026 479.999 358.303 469.572 362.675 459.777L359.726 460.616C353.708 462.204 350.197 463.073 349.195 463.221L348.482 463.326C346.952 463.552 345.432 463.48 343.922 463.111C342.404 462.689 341.578 462.031 341.446 461.135C341.313 460.24 341.554 459.316 342.168 458.365C342.834 457.405 343.211 456.677 343.299 456.179C343.497 454.966 344.678 453.473 346.841 451.7C349.057 449.92 350.768 448.914 351.974 448.682C353.172 448.398 354.321 448.147 355.421 447.931C356.574 447.707 357.832 447.467 359.196 447.212C360.613 446.949 361.687 446.737 362.418 446.575L369.493 445.208C372.942 437.917 375.343 433.203 376.698 431.065C378.105 428.92 378.929 427.749 379.17 427.552C379.402 427.302 379.914 427.119 380.706 427.002L384.355 425.979Z" fill="#FD00FE"/>
<path d="M407.668 553.323C407.443 553.625 406.82 555.063 405.799 557.635C404.839 560.253 403.774 562.886 402.603 565.535C401.439 568.236 399.887 570.86 397.946 573.407C396.058 575.947 394.361 577.408 392.854 577.792C391.408 578.221 390.474 578.466 390.052 578.529C385.198 579.245 382.408 577.154 381.683 572.256C380.832 566.515 382.818 559.36 387.641 550.79C389.481 547.558 391.865 544.004 394.795 540.127C397.733 536.302 399.325 534.129 399.571 533.609C399.826 533.141 402.69 525.183 408.165 509.735C403.92 516.013 399.891 521.21 396.08 525.324C392.261 529.387 388.378 531.924 384.43 532.938L383.876 533.02C381.819 533.323 379.686 532.938 377.478 531.865C375.279 530.844 373.929 528.649 373.43 525.278C372.688 520.274 373.316 515.23 375.312 510.145C376.02 508.372 377.246 505.366 378.99 501.125C380.787 496.877 382.418 492.788 383.885 488.858C385.355 485.681 386.808 482.022 388.243 477.881C389.678 473.74 390.802 470.775 391.616 468.987C392.421 467.146 393.299 466.155 394.248 466.015C395.198 465.874 396.501 466.301 398.158 467.294C399.86 468.227 400.831 469.51 401.073 471.143C401.315 472.775 398.909 480.37 393.854 493.925C388.8 507.481 386.402 515.128 386.659 516.866C386.721 517.287 386.964 517.467 387.386 517.405C388.81 517.194 391.653 514.729 395.914 510.01C400.22 505.23 404.859 499.244 409.832 492.051C415.389 484.072 419.611 476.91 422.499 470.563C422.864 469.755 423.152 469.148 423.361 468.74C423.615 468.272 423.906 467.691 424.235 466.997C424.608 466.242 424.899 465.661 425.109 465.253C425.37 464.837 425.651 464.365 425.95 463.837C426.294 463.248 426.605 462.798 426.882 462.488C427.16 462.178 427.464 461.864 427.794 461.546C428.297 460.934 428.891 460.577 429.577 460.476C430.315 460.367 431.42 460.365 432.891 460.471C434.415 460.569 435.337 460.783 435.655 461.112C436.026 461.434 436.394 461.73 436.757 461.999C437.37 462.501 437.716 463.015 437.794 463.542C437.864 464.016 437.751 464.705 437.454 465.61C437.149 466.462 435.312 470.986 431.943 479.179C422.046 503.353 415.374 520.915 411.929 531.865C418.949 523.939 428.761 512.292 441.364 496.922C441.874 496.362 442.42 496.039 443 495.954C444.636 495.712 445.824 498.093 446.565 503.097C446.784 504.572 446.664 505.585 446.207 506.137C432.226 520.58 419.38 536.309 407.668 553.323Z" fill="#FD00FE"/>
</g>
<mask id="mask0" mask-type="alpha" maskUnits="userSpaceOnUse" x="80" y="19" width="340" height="374">
<rect x="80.9883" y="19.5275" width="338.366" height="3.42587" fill="white"/>
<rect x="80.9883" y="26.3792" width="338.366" height="3.42587" fill="white"/>
<rect x="80.9883" y="33.231" width="338.366" height="3.42587" fill="white"/>
<rect x="80.9883" y="40.0827" width="338.366" height="3.42588" fill="white"/>
<rect x="80.9883" y="46.9344" width="338.366" height="3.42587" fill="white"/>
<rect x="80.9883" y="53.7862" width="338.366" height="3.42587" fill="white"/>
<rect x="80.9883" y="60.638" width="338.366" height="3.42587" fill="white"/>
<rect x="80.9883" y="67.4897" width="338.366" height="3.42587" fill="white"/>
<rect x="80.9883" y="74.3414" width="338.366" height="3.42587" fill="white"/>
<rect x="80.9883" y="81.1932" width="338.366" height="3.42587" fill="white"/>
<rect x="80.9883" y="88.0449" width="338.366" height="3.42588" fill="white"/>
<rect x="80.9883" y="94.8967" width="338.366" height="3.42587" fill="white"/>
<rect x="80.9883" y="101.748" width="338.366" height="3.4259" fill="white"/>
<rect x="80.9883" y="108.6" width="338.366" height="3.42586" fill="white"/>
<rect x="80.9883" y="115.452" width="338.366" height="3.42587" fill="white"/>
<rect x="80.9883" y="122.304" width="338.366" height="3.42588" fill="white"/>
<rect x="80.9883" y="129.155" width="338.366" height="3.42589" fill="white"/>
<rect x="80.9883" y="136.007" width="338.366" height="3.42587" fill="white"/>
<rect x="80.9883" y="142.859" width="338.366" height="3.42587" fill="white"/>
<rect x="80.9883" y="149.711" width="338.366" height="3.42587" fill="white"/>
<rect x="80.9883" y="156.562" width="338.366" height="3.42589" fill="white"/>
<rect x="80.9883" y="163.414" width="338.366" height="3.42587" fill="white"/>
<rect x="80.9883" y="170.266" width="338.366" height="3.42589" fill="white"/>
<rect x="80.9883" y="177.118" width="338.366" height="3.4259" fill="white"/>
<rect x="80.9883" y="183.969" width="338.366" height="3.4259" fill="white"/>
<rect x="80.9883" y="190.821" width="338.366" height="3.42589" fill="white"/>
<rect x="80.9883" y="197.673" width="338.366" height="3.42589" fill="white"/>
<rect x="80.9883" y="204.525" width="338.366" height="3.42587" fill="white"/>
<rect x="80.9883" y="211.376" width="338.366" height="3.42589" fill="white"/>
<rect x="80.9883" y="218.228" width="338.366" height="3.4259" fill="white"/>
<rect x="80.9883" y="225.08" width="338.366" height="3.42587" fill="white"/>
<rect x="80.9883" y="231.932" width="338.366" height="3.4259" fill="white"/>
<rect x="80.9883" y="238.783" width="338.366" height="3.42586" fill="white"/>
<rect x="80.9883" y="245.635" width="338.366" height="3.4259" fill="white"/>
<rect x="80.9883" y="252.487" width="338.366" height="3.42583" fill="white"/>
<rect x="80.9883" y="259.339" width="338.366" height="3.4259" fill="white"/>
<rect x="80.9883" y="266.19" width="338.366" height="3.42587" fill="white"/>
<rect x="80.9883" y="273.042" width="338.366" height="3.42584" fill="white"/>
<rect x="80.9883" y="279.894" width="338.366" height="3.42587" fill="white"/>
<rect x="80.9883" y="286.746" width="338.366" height="3.42587" fill="white"/>
<rect x="80.9883" y="293.597" width="338.366" height="3.42587" fill="white"/>
<rect x="80.9883" y="300.449" width="338.366" height="3.42584" fill="white"/>
<rect x="80.9883" y="307.301" width="338.366" height="3.42584" fill="white"/>
<rect x="80.9883" y="314.153" width="338.366" height="3.42584" fill="white"/>
<rect x="80.9883" y="321.004" width="338.366" height="3.4259" fill="white"/>
<rect x="80.9883" y="327.856" width="338.366" height="3.42587" fill="white"/>
<rect x="80.9883" y="334.708" width="338.366" height="3.42587" fill="white"/>
<rect x="80.9883" y="341.56" width="338.366" height="3.42596" fill="white"/>
<rect x="80.9883" y="348.411" width="338.366" height="3.42584" fill="white"/>
<rect x="80.9883" y="355.263" width="338.366" height="3.42584" fill="white"/>
<rect x="80.9883" y="362.115" width="338.366" height="3.4259" fill="white"/>
<rect x="80.9883" y="368.967" width="338.366" height="3.42593" fill="white"/>
<rect x="80.9883" y="375.818" width="338.366" height="3.4259" fill="white"/>
<rect x="80.9883" y="382.67" width="338.366" height="3.42587" fill="white"/>
<rect x="80.9883" y="389.522" width="338.366" height="3.42587" fill="white"/>
</mask>
<g mask="url(#mask0)">
<ellipse cx="250.172" cy="196.988" rx="169.183" ry="168.896" fill="url(#paint4_linear)"/>
<path d="M183.091 165.158L124.175 199.491L183.091 233.101L170.039 253.519L99.5215 209.791V189.372L170.401 145.462L183.091 165.158Z" fill="#F4B80C"/>
<path d="M200.785 266.168L276.922 108.6L299.038 118.9L223.082 276.468L200.785 266.168Z" fill="#F4B80C"/>
<path d="M400.482 189.191V209.791L329.784 253.519L316.913 234.004L375.647 199.491L316.913 166.062L329.603 145.462L400.482 189.191Z" fill="#F4B80C"/>
</g>
</g>
<defs>
<filter id="filter0_d" x="-13.624" y="354.253" width="527.49" height="196.349" filterUnits="userSpaceOnUse" color-interpolation-filters="sRGB">
<feFlood flood-opacity="0" result="BackgroundImageFix"/>
<feColorMatrix in="SourceAlpha" type="matrix" values="0 0 0 0 0 0 0 0 0 0 0 0 0 0 0 0 0 0 127 0"/>
<feOffset/>
<feGaussianBlur stdDeviation="25"/>
<feColorMatrix type="matrix" values="0 0 0 0 1 0 0 0 0 0 0 0 0 0 0.505882 0 0 0 1 0"/>
<feBlend mode="normal" in2="BackgroundImageFix" result="effect1_dropShadow"/>
<feBlend mode="normal" in="SourceGraphic" in2="effect1_dropShadow" result="shape"/>
</filter>
<filter id="filter1_d" x="244.675" y="425.979" width="205.996" height="160.687" filterUnits="userSpaceOnUse" color-interpolation-filters="sRGB">
<feFlood flood-opacity="0" result="BackgroundImageFix"/>
<feColorMatrix in="SourceAlpha" type="matrix" values="0 0 0 0 0 0 0 0 0 0 0 0 0 0 0 0 0 0 127 0"/>
<feOffset dy="4"/>
<feGaussianBlur stdDeviation="2"/>
<feColorMatrix type="matrix" values="0 0 0 0 0 0 0 0 0 0 0 0 0 0 0 0 0 0 0.25 0"/>
<feBlend mode="normal" in2="BackgroundImageFix" result="effect1_dropShadow"/>
<feBlend mode="normal" in="SourceGraphic" in2="effect1_dropShadow" result="shape"/>
</filter>
<linearGradient id="paint0_linear" x1="250.121" y1="404.253" x2="250.121" y2="500.602" gradientUnits="userSpaceOnUse">
<stop stop-color="#0082BA"/>
<stop offset="0.5" stop-color="white" stop-opacity="0.697917"/>
<stop offset="0.5001" stop-color="#8C008C"/>
<stop offset="1" stop-color="white"/>
</linearGradient>
<linearGradient id="paint1_linear" x1="250.121" y1="404.253" x2="250.121" y2="500.602" gradientUnits="userSpaceOnUse">
<stop stop-color="#0082BA"/>
<stop offset="0.5" stop-color="white" stop-opacity="0.697917"/>
<stop offset="0.5001" stop-color="#8C008C"/>
<stop offset="1" stop-color="white"/>
</linearGradient>
<linearGradient id="paint2_linear" x1="250.121" y1="404.253" x2="250.121" y2="500.602" gradientUnits="userSpaceOnUse">
<stop stop-color="#0082BA"/>
<stop offset="0.5" stop-color="white" stop-opacity="0.697917"/>
<stop offset="0.5001" stop-color="#8C008C"/>
<stop offset="1" stop-color="white"/>
</linearGradient>
<linearGradient id="paint3_linear" x1="250.121" y1="404.253" x2="250.121" y2="500.602" gradientUnits="userSpaceOnUse">
<stop stop-color="#0082BA"/>
<stop offset="0.5" stop-color="white" stop-opacity="0.697917"/>
<stop offset="0.5001" stop-color="#8C008C"/>
<stop offset="1" stop-color="white"/>
</linearGradient>
<linearGradient id="paint4_linear" x1="250.172" y1="28.0922" x2="250.172" y2="365.883" gradientUnits="userSpaceOnUse">
<stop stop-color="#7700A8"/>
<stop offset="1" stop-color="#FF005C"/>
</linearGradient>
<clipPath id="clip0">
<rect width="500" height="617" fill="white"/>
</clipPath>
</defs>
</svg>
