<svg width="139" height="48" viewBox="0 0 139 48" fill="none" xmlns="http://www.w3.org/2000/svg">
<g clip-path="url(#clip0)">
<g filter="url(#filter0_d)">
<path d="M49.9709 29.8947V26.9097H46.9855V23.9248H44V14.9699H46.9855V11.985H49.9709V9H61.9128V11.985H64.8982V14.9699H58.9273V11.985H52.9564V14.9699H49.9709V23.9248H52.9564V26.9097H58.9273V23.9248H64.8982V26.9097H61.9128V29.8947H49.9709Z" fill="url(#paint0_linear)"/>
<path d="M70.8691 29.8947V26.9097H67.8837V11.985H70.8691V9H85.7964V11.985H88.7819V26.9097H85.7964V29.8947H70.8691ZM73.8546 26.9097H82.811V11.985H73.8546V26.9097Z" fill="url(#paint1_linear)"/>
<path d="M91.7674 29.8947V9H106.695V11.985H109.68V14.9699H112.666V23.9248H109.68V26.9097H106.695V29.8947H91.7674ZM97.7383 26.9097H103.709V23.9248H106.695V14.9699H103.709V11.985H97.7383V26.9097Z" fill="url(#paint2_linear)"/>
<path d="M115.651 29.8947V9H136.549V11.985H121.622V17.9549H133.564V20.9398H121.622V26.9097H136.549V29.8947H115.651Z" fill="url(#paint3_linear)"/>
</g>
<g filter="url(#filter1_d)">
<path d="M101.443 35.021C101.981 34.5562 102.326 34.2427 102.477 34.0803C102.626 33.9064 102.801 33.7055 103.001 33.4776C103.2 33.2496 103.375 33.1247 103.523 33.1027C103.752 33.0689 103.905 33.3147 103.982 33.8401C104.058 34.3541 103.884 34.9518 103.46 35.6332C103.045 36.3015 102.492 36.9027 101.8 37.4368C101.107 37.9594 100.355 38.4383 99.5443 38.8734C97.9354 39.7533 96.5312 40.2819 95.3319 40.4593C94.144 40.635 93.0129 40.4054 91.9386 39.7706C90.8626 39.1244 90.2317 38.1731 90.0459 36.9166C89.8584 35.6488 89.9858 34.3402 90.4282 32.9909C90.8689 31.6301 91.5103 30.4031 92.3524 29.3098C93.2043 28.2034 94.2373 27.2569 95.4516 26.4704C96.6773 25.6822 97.9298 25.1935 99.209 25.0043C99.8258 24.9131 100.406 25.0082 100.949 25.2897C101.493 25.5711 101.81 26.0202 101.902 26.637C101.993 27.2538 101.794 28.0419 101.306 29.0011C100.827 29.9473 100.274 30.4669 99.6454 30.5598C98.9144 30.6679 98.4974 30.3736 98.3944 29.6768C98.3673 29.4941 98.4905 29.1432 98.7639 28.6242C99.0373 28.1052 99.1622 27.7658 99.1386 27.6059C99.1132 27.4346 99.0377 27.3582 98.9121 27.3768C98.2839 27.4697 97.6421 27.7864 96.9867 28.3268C96.3313 28.8673 95.7421 29.4213 95.2191 29.9888C94.7075 30.5547 94.2329 31.1735 93.7953 31.8451C92.844 33.3047 92.4714 34.7313 92.6775 36.1248C92.7603 36.6844 93.0091 37.1437 93.424 37.5025C93.8486 37.8482 94.4835 37.9586 95.3288 37.8336C96.1854 37.7069 97.0277 37.4831 97.8556 37.1623C98.6819 36.83 99.3523 36.5091 99.8667 36.1996C100.391 35.8769 100.916 35.4841 101.443 35.021Z" fill="#FD00FE"/>
<path d="M111.603 18.7086C111.699 19.3597 111.947 19.4672 111.44 20.2192C110.931 20.9598 110.345 21.3791 109.682 21.4771C109.031 21.5734 108.359 21.2373 108.257 20.552C108.156 19.8667 108.345 19.1734 108.825 18.4721C109.315 17.7578 109.506 17.8626 110.203 17.7595C110.511 17.7139 111.014 17.8853 111.223 18.0296C111.431 18.1739 111.557 18.4002 111.603 18.7086ZM111.493 33.4823C111.543 33.8249 111.545 34.0756 111.499 34.2342C111.108 35.4592 110.354 36.5161 109.237 37.405C108.117 38.2825 107.107 38.788 106.204 38.9214C105.302 39.0549 104.481 38.867 103.74 38.358C102.999 37.8489 102.583 37.2802 102.49 36.652C102.397 36.0238 102.576 35.0636 103.027 33.7714C103.478 32.4792 103.942 31.2783 104.42 30.1688C104.898 29.0594 105.131 28.4647 105.119 28.3847C105.105 28.2933 104.96 28.1397 104.683 27.9239C104.417 27.7064 104.276 27.5406 104.259 27.4264C104.241 27.3007 104.428 26.952 104.822 26.3801C105.226 25.7952 105.729 25.2073 106.33 24.6165C106.941 24.0126 107.423 23.6845 107.777 23.6321C108.143 23.578 108.492 23.6898 108.825 23.9674C109.158 24.245 109.344 24.5151 109.383 24.7778C109.421 25.0405 108.428 27.7144 106.402 32.7995C106.378 32.8731 106.304 33.0416 106.179 33.3052C106.064 33.5556 105.973 33.7675 105.906 33.9409C105.848 34.1012 105.777 34.2983 105.695 34.5322C105.534 35.0229 105.477 35.4224 105.522 35.7308C105.58 36.1192 105.871 36.2745 106.397 36.1968C106.922 36.1191 107.438 35.8618 107.946 35.4249C108.463 34.975 108.895 34.5026 109.242 34.0077C110.145 32.6953 110.671 32.0281 110.819 32.0062C111.116 31.9623 111.341 32.4543 111.493 33.4823Z" fill="#FD00FE"/>
<path d="M119.336 13.7116L120.064 13.779C120.167 13.7638 120.266 13.8017 120.361 13.8927C120.456 13.9836 120.51 14.0748 120.524 14.1662C120.537 14.2576 120.454 14.5209 120.273 14.9561C120.092 15.3914 119.874 15.8905 119.619 16.4535C119.374 17.0033 119.243 17.3028 119.227 17.3519C120.107 17.1516 120.731 17.0244 121.096 16.9703C121.473 16.9146 121.734 16.9051 121.88 16.942C122.024 16.9674 122.199 17.0874 122.406 17.3019C122.622 17.5033 122.814 17.6559 122.981 17.7595C123.147 17.8518 123.247 18.0179 123.282 18.2577C123.318 18.4976 123.2 18.7252 122.928 18.9404C122.666 19.1425 122.372 19.2852 122.046 19.3685C119.435 20.0231 117.993 20.3764 117.721 20.4283C117.005 21.9815 116.036 24.3834 114.812 27.634C113.599 30.8715 112.996 32.8748 113.005 33.6438C113.01 33.9932 113.028 34.2765 113.06 34.4935C113.126 34.9389 113.393 35.127 113.862 35.0578C114.33 34.9885 114.823 34.7346 115.342 34.2961C115.859 33.8461 116.326 33.3744 116.744 32.8808C117.854 31.5494 118.455 30.877 118.546 30.8634C118.843 30.8195 119.068 31.3116 119.22 32.3395C119.302 32.8992 119.12 33.4398 118.672 33.9613C117.665 35.1256 116.805 36.0173 116.091 36.6364C115.377 37.2556 114.626 37.6234 113.838 37.74C113.667 37.7653 113.504 37.7718 113.351 37.7595C112.412 37.7233 111.689 37.4917 111.182 37.0648C110.685 36.6247 110.374 35.982 110.249 35.1368C110.136 34.2899 110.236 33.2305 110.55 31.9585C110.873 30.6735 111.311 29.2956 111.864 27.8249C112.77 25.4266 113.696 23.1653 114.643 21.0411L114.004 21.2231C112.701 21.5675 111.941 21.7558 111.724 21.7879L111.57 21.8107C111.239 21.8597 110.91 21.8441 110.583 21.7641C110.254 21.6727 110.075 21.5298 110.047 21.3357C110.018 21.1415 110.07 20.9412 110.203 20.7348C110.347 20.5267 110.429 20.3687 110.448 20.2609C110.491 19.9978 110.746 19.674 111.215 19.2896C111.694 18.9035 112.065 18.6853 112.326 18.635C112.585 18.5733 112.834 18.519 113.072 18.4721C113.322 18.4236 113.594 18.3716 113.889 18.3163C114.196 18.2592 114.429 18.2132 114.587 18.1781L116.119 17.8815C116.865 16.3005 117.385 15.2782 117.678 14.8146C117.983 14.3494 118.162 14.0954 118.214 14.0527C118.264 13.9985 118.375 13.9588 118.546 13.9335L119.336 13.7116Z" fill="#FD00FE"/>
<path d="M124.383 41.3277C124.335 41.3933 124.2 41.705 123.979 42.2629C123.771 42.8306 123.54 43.4016 123.287 43.976C123.035 44.5618 122.699 45.1309 122.279 45.6833C121.87 46.234 121.502 46.5509 121.176 46.6342C120.863 46.7272 120.661 46.7804 120.569 46.7939C119.519 46.9493 118.915 46.4959 118.758 45.4337C118.573 44.1887 119.003 42.6369 120.048 40.7784C120.446 40.0776 120.962 39.3067 121.596 38.4659C122.232 37.6365 122.577 37.1654 122.63 37.0524C122.685 36.9509 123.306 35.2252 124.491 31.8751C123.572 33.2366 122.7 34.3635 121.874 35.2559C121.048 36.1368 120.207 36.6872 119.352 36.9069L119.233 36.9247C118.787 36.9906 118.325 36.9071 117.847 36.6743C117.371 36.453 117.079 35.9768 116.971 35.2458C116.81 34.1607 116.946 33.0668 117.378 31.9641C117.532 31.5796 117.797 30.9276 118.175 30.008C118.564 29.0868 118.917 28.2 119.234 27.3477C119.553 26.6586 119.867 25.8651 120.178 24.9671C120.489 24.0691 120.732 23.4262 120.908 23.0383C121.082 22.6391 121.272 22.4242 121.478 22.3938C121.684 22.3634 121.966 22.4559 122.324 22.6713C122.693 22.8736 122.903 23.1518 122.956 23.5059C123.008 23.86 122.487 25.5069 121.393 28.4466C120.298 31.3863 119.779 33.0446 119.835 33.4216C119.848 33.5129 119.901 33.5519 119.992 33.5384C120.301 33.4928 120.916 32.9582 121.839 31.9347C122.771 30.8981 123.775 29.5999 124.852 28.0401C126.055 26.3098 126.969 24.7565 127.594 23.3801C127.673 23.205 127.735 23.0733 127.781 22.9849C127.836 22.8834 127.899 22.7573 127.97 22.6067C128.051 22.4431 128.114 22.317 128.159 22.2286C128.216 22.1385 128.276 22.0362 128.341 21.9215C128.416 21.7938 128.483 21.6963 128.543 21.6291C128.603 21.5618 128.669 21.4937 128.74 21.4248C128.849 21.292 128.978 21.2146 129.126 21.1927C129.286 21.169 129.525 21.1687 129.844 21.1916C130.174 21.2128 130.373 21.2592 130.442 21.3307C130.523 21.4005 130.602 21.4646 130.681 21.523C130.814 21.6318 130.889 21.7433 130.905 21.8575C130.921 21.9603 130.896 22.1098 130.832 22.3061C130.766 22.4909 130.368 23.4718 129.639 25.2487C127.496 30.4911 126.052 34.2997 125.306 36.6743C126.826 34.9555 128.95 32.4296 131.678 29.0964C131.789 28.975 131.907 28.9051 132.032 28.8865C132.387 28.8341 132.644 29.3505 132.804 30.4356C132.852 30.7554 132.826 30.9752 132.727 31.0948C129.7 34.227 126.919 37.6379 124.383 41.3277Z" fill="#FD00FE"/>
</g>
<mask id="mask0" mask-type="alpha" maskUnits="userSpaceOnUse" x="5" y="3" width="32" height="36">
<rect x="5" y="3" width="31.71" height="0.321602" fill="white"/>
<rect x="5" y="3.64319" width="31.71" height="0.321602" fill="white"/>
<rect x="5" y="4.28638" width="31.71" height="0.321602" fill="white"/>
<rect x="5" y="4.92963" width="31.71" height="0.321602" fill="white"/>
<rect x="5" y="5.57281" width="31.71" height="0.321602" fill="white"/>
<rect x="5" y="6.216" width="31.71" height="0.321602" fill="white"/>
<rect x="5" y="6.85919" width="31.71" height="0.321602" fill="white"/>
<rect x="5" y="7.50238" width="31.71" height="0.321602" fill="white"/>
<rect x="5" y="8.14563" width="31.71" height="0.321602" fill="white"/>
<rect x="5" y="8.78882" width="31.71" height="0.321602" fill="white"/>
<rect x="5" y="9.43207" width="31.71" height="0.321602" fill="white"/>
<rect x="5" y="10.0753" width="31.71" height="0.321602" fill="white"/>
<rect x="5" y="10.7184" width="31.71" height="0.321602" fill="white"/>
<rect x="5" y="11.3616" width="31.71" height="0.321602" fill="white"/>
<rect x="5" y="12.0049" width="31.71" height="0.321602" fill="white"/>
<rect x="5" y="12.6481" width="31.71" height="0.321602" fill="white"/>
<rect x="5" y="13.2913" width="31.71" height="0.321602" fill="white"/>
<rect x="5" y="13.9345" width="31.71" height="0.321602" fill="white"/>
<rect x="5" y="14.5777" width="31.71" height="0.321602" fill="white"/>
<rect x="5" y="15.2209" width="31.71" height="0.321602" fill="white"/>
<rect x="5" y="15.8641" width="31.71" height="0.321602" fill="white"/>
<rect x="5" y="16.5073" width="31.71" height="0.321602" fill="white"/>
<rect x="5" y="17.1505" width="31.71" height="0.321602" fill="white"/>
<rect x="5" y="17.7937" width="31.71" height="0.321602" fill="white"/>
<rect x="5" y="18.437" width="31.71" height="0.321602" fill="white"/>
<rect x="5" y="19.0801" width="31.71" height="0.321602" fill="white"/>
<rect x="5" y="19.7233" width="31.71" height="0.321602" fill="white"/>
<rect x="5" y="20.3666" width="31.71" height="0.321602" fill="white"/>
<rect x="5" y="21.0098" width="31.71" height="0.321602" fill="white"/>
<rect x="5" y="21.653" width="31.71" height="0.321602" fill="white"/>
<rect x="5" y="22.2961" width="31.71" height="0.321602" fill="white"/>
<rect x="5" y="22.9394" width="31.71" height="0.321602" fill="white"/>
<rect x="5" y="23.5826" width="31.71" height="0.321602" fill="white"/>
<rect x="5" y="24.2258" width="31.71" height="0.321602" fill="white"/>
<rect x="5" y="24.869" width="31.71" height="0.321602" fill="white"/>
<rect x="5" y="25.5121" width="31.71" height="0.321602" fill="white"/>
<rect x="5" y="26.1554" width="31.71" height="0.321602" fill="white"/>
<rect x="5" y="26.7986" width="31.71" height="0.321602" fill="white"/>
<rect x="5" y="27.4418" width="31.71" height="0.321602" fill="white"/>
<rect x="5" y="28.085" width="31.71" height="0.321602" fill="white"/>
<rect x="5" y="28.7282" width="31.71" height="0.321602" fill="white"/>
<rect x="5" y="29.3714" width="31.71" height="0.321602" fill="white"/>
<rect x="5" y="30.0146" width="31.71" height="0.321602" fill="white"/>
<rect x="5" y="30.6578" width="31.71" height="0.321602" fill="white"/>
<rect x="5" y="31.301" width="31.71" height="0.321602" fill="white"/>
<rect x="5" y="31.9442" width="31.71" height="0.321602" fill="white"/>
<rect x="5" y="32.5875" width="31.71" height="0.321602" fill="white"/>
<rect x="5" y="33.2307" width="31.71" height="0.321602" fill="white"/>
<rect x="5" y="33.8738" width="31.71" height="0.321602" fill="white"/>
<rect x="5" y="34.517" width="31.71" height="0.321602" fill="white"/>
<rect x="5" y="35.1602" width="31.71" height="0.321602" fill="white"/>
<rect x="5" y="35.8034" width="31.71" height="0.321602" fill="white"/>
<rect x="5" y="36.4467" width="31.71" height="0.321602" fill="white"/>
<rect x="5" y="37.0899" width="31.71" height="0.321602" fill="white"/>
<rect x="5" y="37.7331" width="31.71" height="0.321602" fill="white"/>
</mask>
<g mask="url(#mask0)">
<circle cx="20.855" cy="19.659" r="15.855" fill="url(#paint4_linear)"/>
<path d="M14.569 16.671L9.04773 19.894L14.569 23.0491L13.3458 24.9659L6.7373 20.8608V18.944L13.3798 14.8221L14.569 16.671Z" fill="#F4B80C"/>
<path d="M16.2272 26.1533L23.3624 11.3616L25.4349 12.3285L18.3168 27.1202L16.2272 26.1533Z" fill="#F4B80C"/>
<path d="M34.9418 18.9271V20.8608L28.3163 24.9659L27.1102 23.1339L32.6144 19.894L27.1102 16.7558L28.2994 14.8221L34.9418 18.9271Z" fill="#F4B80C"/>
</g>
</g>
<defs>
<filter id="filter0_d" x="39" y="4" width="102.549" height="30.8947" filterUnits="userSpaceOnUse" color-interpolation-filters="sRGB">
<feFlood flood-opacity="0" result="BackgroundImageFix"/>
<feColorMatrix in="SourceAlpha" type="matrix" values="0 0 0 0 0 0 0 0 0 0 0 0 0 0 0 0 0 0 127 0"/>
<feOffset/>
<feGaussianBlur stdDeviation="2.5"/>
<feColorMatrix type="matrix" values="0 0 0 0 1 0 0 0 0 0 0 0 0 0 0.505882 0 0 0 1 0"/>
<feBlend mode="normal" in2="BackgroundImageFix" result="effect1_dropShadow"/>
<feBlend mode="normal" in="SourceGraphic" in2="effect1_dropShadow" result="shape"/>
</filter>
<filter id="filter1_d" x="87.3145" y="12.1204" width="49.5954" height="40.8796" filterUnits="userSpaceOnUse" color-interpolation-filters="sRGB">
<feFlood flood-opacity="0" result="BackgroundImageFix"/>
<feColorMatrix in="SourceAlpha" type="matrix" values="0 0 0 0 0 0 0 0 0 0 0 0 0 0 0 0 0 0 127 0"/>
<feOffset dx="1" dy="1"/>
<feGaussianBlur stdDeviation="0.5"/>
<feColorMatrix type="matrix" values="0 0 0 0 0 0 0 0 0 0 0 0 0 0 0 0 0 0 0.25 0"/>
<feBlend mode="normal" in2="BackgroundImageFix" result="effect1_dropShadow"/>
<feBlend mode="normal" in="SourceGraphic" in2="effect1_dropShadow" result="shape"/>
</filter>
<linearGradient id="paint0_linear" x1="90.2746" y1="9" x2="90.2746" y2="29.8947" gradientUnits="userSpaceOnUse">
<stop stop-color="#0082BA"/>
<stop offset="0.5" stop-color="white" stop-opacity="0.697917"/>
<stop offset="0.5001" stop-color="#8C008C"/>
<stop offset="1" stop-color="white"/>
</linearGradient>
<linearGradient id="paint1_linear" x1="90.2746" y1="9" x2="90.2746" y2="29.8947" gradientUnits="userSpaceOnUse">
<stop stop-color="#0082BA"/>
<stop offset="0.5" stop-color="white" stop-opacity="0.697917"/>
<stop offset="0.5001" stop-color="#8C008C"/>
<stop offset="1" stop-color="white"/>
</linearGradient>
<linearGradient id="paint2_linear" x1="90.2746" y1="9" x2="90.2746" y2="29.8947" gradientUnits="userSpaceOnUse">
<stop stop-color="#0082BA"/>
<stop offset="0.5" stop-color="white" stop-opacity="0.697917"/>
<stop offset="0.5001" stop-color="#8C008C"/>
<stop offset="1" stop-color="white"/>
</linearGradient>
<linearGradient id="paint3_linear" x1="90.2746" y1="9" x2="90.2746" y2="29.8947" gradientUnits="userSpaceOnUse">
<stop stop-color="#0082BA"/>
<stop offset="0.5" stop-color="white" stop-opacity="0.697917"/>
<stop offset="0.5001" stop-color="#8C008C"/>
<stop offset="1" stop-color="white"/>
</linearGradient>
<linearGradient id="paint4_linear" x1="20.855" y1="3.80402" x2="20.855" y2="35.514" gradientUnits="userSpaceOnUse">
<stop stop-color="#7700A8"/>
<stop offset="1" stop-color="#FF005C"/>
</linearGradient>
<clipPath id="clip0">
<rect width="139" height="48" fill="white"/>
</clipPath>
</defs>
</svg>
